<?xml version="1.0" encoding="UTF-8"?>
<svg id="_レイヤー_2" data-name="レイヤー 2" xmlns="http://www.w3.org/2000/svg" viewBox="0 0 158 156">
  <defs>
    <style>
      .cls-1 {
        fill: #f0ebeb;
      }

      .cls-2 {
        fill: #6e3d44;
      }

      .cls-3 {
        fill: #6e3d43;
      }

      .cls-4 {
        fill: #724349;
      }

      .cls-5 {
        fill: #734449;
      }

      .cls-6 {
        fill: #7e5257;
      }

      .cls-7 {
        fill: #fefefe;
      }

      .cls-8 {
        fill: #6f3e45;
      }

      .cls-9 {
        fill: #f7f5f5;
      }
    </style>
  </defs>
  <g id="_レイヤー_1-2" data-name="レイヤー 1">
    <g>
      <path class="cls-7" d="M0,156V0h158v156H0ZM29.72,119.79c4.28,1.56,8.59,6.81,13.71,6.5l27.66-1.64c3.11,7.25,7.52,13.44,15.14,16.54l-.15-87.29c-1.43-3.07-7.52-4.03-9.69-2.42,1.5.52,2.31.52,2.82.77.76.38.93,1.35.92,2.62l-.17,16.44-28.13,2.64v23.45s17.45-1.54,17.45-1.54l.95.07c-1.77,6.24-1.48,12.89-1.38,19.69l-37.23,3.41c-.72-1.4-.92-2.93-.92-5.07l.03-96.32,55.21-4.81c.46-.5.57-2.01-.02-2.75l-58.62,5.19v101.62c0,1.02.18,2.06.68,2.42.38.28,1.08.23,1.76.48ZM102.59,40.12l-.4-22.81-12.56-7.02.11,30.8c4.7.27,8.61.35,12.84-.96ZM66.52,50.53l.04-7.06,19.26-1.64c.61-3.06.67-5.7.11-9.18l-34.06,2.97-.05,18.71,18.61-1.79c-1.68-.63-3.93-.81-3.92-2.02ZM89.9,142.54c11.11,3.42,22.7,1.54,29.88-6.78.84,2.41.46,3.96.48,6.52l17.41.09.05-94.33-21.11-.03-.17,30.72c-6.85-4.67-13.75-5.59-21.3-4.91l-.45-15.64c-.04-1.35-3.32-2.88-4.92-2.33l.12,86.69ZM39.1,93.8c-.45-2.74-.77-3.66-1.9-4.54-.73-.57-2.78-.35-3.27.74-1.01,2.23-1.03,8.1,1.39,9.44,2.69,1.49,4.21-3.06,3.79-5.64ZM45.22,97.21c-3.32.52-3.32,5.05-2.97,7.49.31,2.17,1.51,3.33,3.26,3.21,3.04-.22,3.54-11.29-.29-10.69Z"/>
      <g>
        <g>
          <path class="cls-8" d="M89.9,142.54l-.12-86.69c1.6-.55,4.88.98,4.92,2.33l.45,15.64c7.55-.68,14.45.24,21.3,4.91l.17-30.72,21.11.03-.05,94.33-17.41-.09c-.02-2.56.35-4.12-.48-6.52-7.19,8.32-18.78,10.2-29.88,6.78ZM93.96,122.82c3.77,4.57,9.55,5.82,14.53,4.09,5.42-1.87,8.8-6.73,8.57-12.95l-.55-15.53c-.17-4.68-5.91-7.35-9.37-7.88-4.87-.74-9.44.47-12.45,3.92l9.72,5.29-.22,22.03-10.23,1.02Z"/>
          <path class="cls-9" d="M93.96,122.82l10.23-1.02.22-22.03-9.72-5.29c3.01-3.46,7.58-4.66,12.45-3.92,3.46.53,9.2,3.2,9.37,7.88l.55,15.53c.22,6.21-3.16,11.07-8.57,12.95-4.98,1.72-10.76.47-14.53-4.09Z"/>
        </g>
        <g>
          <path class="cls-2" d="M29.72,119.79c.5-.46,1.17-.69,1.89-.76l37.23-3.41c-.11-6.79-.39-13.45,1.38-19.69,1.56-5.51,5.1-9.97,9.44-15.19-4.67-.08-8.36.83-13.11,1.09l-.02,12.04c0,1.05,2.14,1.73,2.74,1.98l-17.45,1.54v-23.45s28.14-2.64,28.14-2.64l.17-16.44c.01-1.28-.16-2.25-.92-2.62-.5-.25-1.32-.24-2.82-.77,2.17-1.61,8.26-.65,9.69,2.42l.15,87.29c-7.62-3.1-12.03-9.3-15.14-16.54l-27.66,1.64c-5.12.3-9.43-4.95-13.71-6.5Z"/>
          <path class="cls-6" d="M31.61,119.03c-.72.07-1.39.3-1.89.76-.68-.25-1.38-.2-1.76-.48-.5-.37-.68-1.4-.68-2.42V15.26s58.62-5.19,58.62-5.19c.59.74.48,2.25.02,2.75l-55.21,4.81-.03,96.32c0,2.14.2,3.67.92,5.07Z"/>
          <path class="cls-8" d="M66.52,50.53c0,1.21,2.24,1.4,3.92,2.02l-18.61,1.79.05-18.71,34.06-2.97c.56,3.48.5,6.11-.11,9.18l-19.26,1.64-.04,7.06Z"/>
          <path class="cls-3" d="M102.59,40.12c-4.23,1.32-8.14,1.23-12.84.96l-.11-30.8,12.56,7.02.4,22.81Z"/>
          <path class="cls-1" d="M70.22,95.93l-.95-.07c-.6-.25-2.74-.94-2.74-1.98l.02-12.04c4.75-.25,8.44-1.17,13.11-1.09-4.34,5.21-7.88,9.67-9.44,15.19Z"/>
          <path class="cls-5" d="M45.22,97.21c3.83-.6,3.33,10.48.29,10.69-1.76.13-2.96-1.04-3.26-3.21-.35-2.43-.35-6.97,2.97-7.49Z"/>
          <path class="cls-4" d="M39.1,93.8c.42,2.58-1.1,7.12-3.79,5.64-2.42-1.34-2.39-7.21-1.39-9.44.49-1.09,2.55-1.31,3.27-.74,1.13.89,1.45,1.8,1.9,4.54Z"/>
        </g>
      </g>
    </g>
  </g>
</svg>